<?xml version="1.0" encoding="UTF-8" standalone="no"?>
<svg
   xmlns:dc="http://purl.org/dc/elements/1.1/"
   xmlns:cc="http://creativecommons.org/ns#"
   xmlns:rdf="http://www.w3.org/1999/02/22-rdf-syntax-ns#"
   xmlns:svg="http://www.w3.org/2000/svg"
   xmlns="http://www.w3.org/2000/svg"
   xmlns:sodipodi="http://sodipodi.sourceforge.net/DTD/sodipodi-0.dtd"
   xmlns:inkscape="http://www.inkscape.org/namespaces/inkscape"
   id="SvgjsSvg1036"
   width="150"
   height="26.796537"
   version="1.1"
   xlink="http://www.w3.org/1999/xlink"
   viewBox="0.95000005 -45.040001 473.42731 78.074381"
   sodipodi:docname="cardinfo-logo.svg"
   inkscape:export-filename="/Users/pprakash/Development/1.png"
   inkscape:export-xdpi="94.456413"
   inkscape:export-ydpi="94.456413"
   inkscape:version="0.92.2 5c3e80d, 2017-08-06">
  <metadata
     id="metadata367">
    <rdf:RDF>
      <cc:Work
         rdf:about="">
        <dc:format>image/svg+xml</dc:format>
        <dc:type
           rdf:resource="http://purl.org/dc/dcmitype/StillImage" />
        <dc:title></dc:title>
      </cc:Work>
    </rdf:RDF>
  </metadata>
  <sodipodi:namedview
     pagecolor="#ffffff"
     bordercolor="#666666"
     borderopacity="1"
     objecttolerance="10"
     gridtolerance="10"
     guidetolerance="10"
     inkscape:pageopacity="0"
     inkscape:pageshadow="2"
     inkscape:window-width="1646"
     inkscape:window-height="1071"
     id="namedview365"
     showgrid="false"
     inkscape:zoom="7.713333"
     inkscape:cx="75.000003"
     inkscape:cy="13.398269"
     inkscape:window-x="0"
     inkscape:window-y="0"
     inkscape:window-maximized="0"
     inkscape:current-layer="SvgjsSvg1036"
     fit-margin-top="0"
     fit-margin-left="0"
     fit-margin-right="0"
     fit-margin-bottom="0"
     inkscape:pagecheckerboard="false" />
  <defs
     id="SvgjsDefs1037" />
  <g
     id="SvgjsG1038"
     transform="matrix(1.0219307,0,0,1.0219307,96.325403,16.828482)"
     style="fill:#212529"
     inkscape:export-filename="/Users/pprakash/Development/cardinfo-logo.png"
     inkscape:export-xdpi="94.456413"
     inkscape:export-ydpi="94.456413">
    <path
       d="m 12.4,-1.8 c 3.68,1.83 8,2.75 12.96,2.75 6.39,0 11.71,-1.22 15.96,-3.66 v -14.07 c -2.1,1.34 -4.33,2.34 -6.68,3 -2.36,0.65 -5.01,0.97 -7.95,0.97 -3.24,0 -5.81,-0.79 -7.7,-2.36 -1.89,-1.58 -2.84,-3.86 -2.84,-6.85 0,-2.98 0.94,-5.27 2.81,-6.84 1.87,-1.58 4.45,-2.37 7.73,-2.37 3.02,0 5.68,0.3 7.98,0.88 2.29,0.59 4.34,1.56 6.15,2.91 v -14.13 c -2.11,-1.22 -4.4,-2.11 -6.88,-2.65 -2.48,-0.55 -5.34,-0.82 -8.58,-0.82 -4.96,0 -9.28,0.92 -12.96,2.77 -3.68,1.85 -6.51,4.5 -8.49,7.95 -1.98,3.45 -2.96,7.55 -2.96,12.3 0,4.71 0.98,8.8 2.96,12.27 1.98,3.47 4.81,6.12 8.49,7.95 z M 65.61,-44.1 47.95,0 h 15.33 l 2.84,-7.7 H 79.24 L 82.08,0 H 97.41 L 79.74,-44.1 Z m 10.35,25.43 H 69.4 l 3.28,-10.16 z M 106.87,-44.1 V 0 h 14.7 v -12.05 h 2.84 L 130.21,0 h 15.08 l -6.94,-14.32 c 2.4,-1.3 4.25,-3.1 5.55,-5.39 1.31,-2.3 1.96,-5.08 1.96,-8.36 0,-5.22 -1.6,-9.19 -4.8,-11.93 -3.19,-2.73 -7.52,-4.1 -12.99,-4.1 z m 18.04,20.88 h -3.34 v -9.71 h 3.34 c 3.83,0 5.75,1.62 5.75,4.86 0,3.23 -1.92,4.85 -5.75,4.85 z M 155.32,-44.1 V 0 h 16.91 c 7.57,0 13.53,-1.88 17.89,-5.65 4.35,-3.76 6.53,-9.3 6.53,-16.62 0,-4.46 -1.01,-8.33 -3.03,-11.61 -2.02,-3.28 -4.87,-5.8 -8.55,-7.57 -3.68,-1.77 -7.96,-2.65 -12.84,-2.65 z m 17.92,30.22 h -2.97 v -16.34 h 2.97 c 2.61,0 4.63,0.68 6.06,2.05 1.43,1.37 2.14,3.33 2.14,5.9 0,5.59 -2.73,8.39 -8.2,8.39 z"
       id="path352"
       inkscape:connector-curvature="0" />
  </g>
  <g
     id="SvgjsG1060"
     transform="matrix(0.84574751,0,0,0.84574751,0.95000005,-48.491655)"
     style="fill:#03a87c"
     inkscape:export-filename="/Users/pprakash/Development/cardinfo-logo.png"
     inkscape:export-xdpi="94.456413"
     inkscape:export-ydpi="94.456413">
    <path
       d="m 24,0 h 76 v 76 c 0,13.255 -10.745,24 -24,24 H 0 V 24 C 0,10.745 10.745,0 24,0 Z"
       id="path355"
       inkscape:connector-curvature="0" />
  </g>
  <g
     id="SvgjsG1030"
     transform="matrix(0.9459404,0,0,0.9459404,18.685758,15.800566)"
     style="fill:#ffffff"
     inkscape:export-filename="/Users/pprakash/Development/cardinfo-logo.png"
     inkscape:export-xdpi="94.456413"
     inkscape:export-ydpi="94.456413">
    <path
       d="m 15.192705,1.6876146 c 4.528544,2.2588934 9.853078,3.3775835 15.973604,3.3775835 7.873857,0 14.424648,-1.4951723 19.663129,-4.50703023 V -16.770772 c -2.592349,1.656522 -5.335291,2.882779 -8.239582,3.689526 -2.904292,0.806748 -6.163552,1.204743 -9.788539,1.204743 -3.990711,0 -7.153162,-0.968097 -9.487352,-2.915048 -2.33419,-1.936194 -3.495906,-4.754432 -3.495906,-8.433202 0,-3.678769 1.15096,-6.486251 3.45288,-8.433202 2.312676,-1.946951 5.485884,-2.915048 9.530378,-2.915048 3.721796,0 7.00257,0.365726 9.831565,1.08642 2.818239,0.731451 5.346048,1.925438 7.572671,3.58196 v -17.414993 c -2.592349,-1.505929 -5.410587,-2.592349 -8.465472,-3.25926 C 38.67444,-51.256544 35.157021,-51.59 31.166309,-51.59 c -6.120526,0 -11.44506,1.140203 -15.973604,3.42061 -4.5393,2.280407 -8.0244494,5.539667 -10.455449,9.788538 C 2.3062564,-34.131981 1.08,-29.076362 1.08,-23.224753 c 0,5.808583 1.2262564,10.842689 3.657256,15.1238295 2.4309996,4.2703842 5.916149,7.5404013 10.455449,9.7885381 z"
       id="path358"
       inkscape:connector-curvature="0"
       style="stroke-width:1.07566357" />
  </g>
  <g
     id="SvgjsG1046"
     transform="matrix(1.0219307,0,0,1.0219307,306.82153,16.670081)"
     style="fill:#03a87c"
     inkscape:export-filename="/Users/pprakash/Development/cardinfo-logo.png"
     inkscape:export-xdpi="94.456413"
     inkscape:export-ydpi="94.456413">
    <path
       d="M 2.19,-43.78 V 0 h 14.85 v -43.78 z m 25.49,0 V 0 H 41.9 V -20.42 L 54.93,0 H 68.02 V -43.78 H 53.8 v 20.36 L 40.77,-43.78 Z m 50.98,0 V 0 h 14.85 v -16.28 h 12.46 V -27.49 H 93.51 v -3.82 h 17.59 v -12.47 z m 49.45,41.84 c 3.61,1.92 7.65,2.88 12.12,2.88 4.42,0 8.44,-0.96 12.05,-2.88 3.62,-1.92 6.47,-4.6 8.55,-8.05 2.09,-3.44 3.13,-7.4 3.13,-11.87 0,-4.47 -1.04,-8.43 -3.13,-11.9 -2.08,-3.46 -4.93,-6.16 -8.55,-8.08 -3.61,-1.92 -7.63,-2.88 -12.05,-2.88 -4.47,0 -8.51,0.96 -12.12,2.88 -3.61,1.92 -6.46,4.62 -8.55,8.08 -2.09,3.47 -3.13,7.43 -3.13,11.9 0,4.47 1.04,8.43 3.13,11.87 2.09,3.45 4.94,6.13 8.55,8.05 z m 18.32,-13.47 c -1.63,1.59 -3.7,2.38 -6.2,2.38 -2.51,0 -4.58,-0.79 -6.23,-2.38 -1.65,-1.58 -2.48,-3.73 -2.48,-6.45 0,-2.71 0.82,-4.86 2.44,-6.45 1.63,-1.59 3.72,-2.38 6.27,-2.38 2.5,0 4.57,0.79 6.2,2.38 1.63,1.59 2.44,3.74 2.44,6.45 0,2.72 -0.81,4.87 -2.44,6.45 z"
       id="path361"
       inkscape:connector-curvature="0" />
  </g>
</svg>
